<?xml version="1.0" encoding="UTF-8"?>
<svg width="24px" height="22px" viewBox="0 0 24 22" version="1.1" xmlns="http://www.w3.org/2000/svg" xmlns:xlink="http://www.w3.org/1999/xlink">
    <!-- Generator: Sketch 52.6 (67491) - http://www.bohemiancoding.com/sketch -->
    <title>camera</title>
    <desc>Created with Sketch.</desc>
    <g id="Symbols" stroke="none" stroke-width="1" fill="none" fill-rule="evenodd">
        <g id="ic/photo" fill="#000000">
            <g id="camera" transform="translate(0.000000, 0.000000)">
                <path d="M21.898167,5.23014257 L18.5925703,5.23014257 L16.6843014,3.14458656 L9.38492872,3.14458656 L9.38492872,6.27289613 L6.25661914,6.27289613 L6.25661914,9.4012057 L3.12830957,9.4012057 L3.12830957,19.828888 C3.12830957,20.9759511 4.06680244,21.914444 5.21386558,21.914444 L21.898167,21.914444 C23.0452301,21.914444 23.983723,20.9759511 23.983723,19.828888 L23.983723,7.31564969 C23.983723,6.16863544 23.0452301,5.23014257 21.898167,5.23014257 Z M13.5559919,18.7861344 C10.677947,18.7861344 8.34212627,16.4503136 8.34212627,13.5722688 C8.34212627,10.694224 10.677947,8.35845214 13.5559919,8.35845214 C16.4340367,8.35845214 18.7698574,10.6942729 18.7698574,13.5723177 C18.7698574,16.4503625 16.4340367,18.7861344 13.5559919,18.7861344 Z M3.12830957,8.35845214 L5.21386558,8.35845214 L5.21386558,5.23014257 L8.34217515,5.23014257 L8.34217515,3.14458656 L5.21386558,3.14458656 L5.21386558,0.0162769857 L3.12830957,0.0162769857 L3.12830957,3.14458656 L0,3.14458656 L0,5.23014257 L3.12830957,5.23014257 L3.12830957,8.35845214 Z M13.5559919,10.2354379 C11.7102892,10.2354379 10.219112,11.7266151 10.219112,13.5723177 C10.219112,15.4180204 11.7102892,16.9091976 13.5559919,16.9091976 C15.4016945,16.9091976 16.8928717,15.4180204 16.8928717,13.5723177 C16.8928717,11.7266151 15.4016945,10.2354379 13.5559919,10.2354379 Z" id="Shape"></path>
            </g>
        </g>
    </g>
</svg>