<?xml version="1.0" encoding="UTF-8"?>
<svg width="18px" height="18px" viewBox="0 0 18 18" version="1.1" xmlns="http://www.w3.org/2000/svg" xmlns:xlink="http://www.w3.org/1999/xlink">
    <!-- Generator: Sketch 52.6 (67491) - http://www.bohemiancoding.com/sketch -->
    <title>ic_exit_to_app</title>
    <desc>Created with Sketch.</desc>
    <g id="Symbols" stroke="none" stroke-width="1" fill="none" fill-rule="evenodd">
        <g id="ic/log-out" transform="translate(-3.000000, -3.000000)">
            <g id="ic_exit_to_app">
                <g id="Icon-24px">
                    <polygon id="Shape" points="0 0 24 0 24 24 0 24"></polygon>
                    <path d="M14.59,15.59 L16,17 L21,12 L16,7 L14.59,8.41 L17.17,11 L7.5,11 L7.5,13 L17.17,13 L14.59,15.59 L14.59,15.59 Z M19,3 C20.11,3 21,3.9 21,5 L21,8 L19,8 L19,5 L5,5 L5,19 L19,19 L19,16 L21,16 L21,19 C21,20.1 20.11,21 19,21 L5,21 C3.9,21 3,20.1 3,19 L3,5 C3,3.9 3.9,3 5,3 L19,3 Z" id="Shape" fill="red"></path>
                </g>
            </g>
        </g>
    </g>
</svg>