<?xml version="1.0" encoding="UTF-8"?>
<svg width="10px" height="19px" viewBox="0 0 10 19" version="1.1" xmlns="http://www.w3.org/2000/svg" xmlns:xlink="http://www.w3.org/1999/xlink">
    <!-- Generator: Sketch 52.6 (67491) - http://www.bohemiancoding.com/sketch -->
    <title>006-facebook — копия</title>
    <desc>Created with Sketch.</desc>
    <g id="Symbols" stroke="none" stroke-width="1" fill="none" fill-rule="evenodd">
        <g id="UI/Footer" transform="translate(-1000.000000, -218.000000)" fill="#BEC5CE" fill-rule="nonzero">
            <g id="Group-9">
                <g id="006-facebook-—-копия" transform="translate(1000.000000, 218.000000)">
                    <path d="M0.319294997,10.1194 L2.48928765,10.1194 L2.48928765,18.6935484 C2.48928765,18.8628323 2.63220409,19 2.80858265,19 L6.48788275,19 C6.66426131,19 6.80717775,18.8628323 6.80717775,18.6935484 L6.80717775,10.1597903 L9.3017657,10.1597903 C9.46396756,10.1597903 9.60043424,10.042971 9.61895335,9.88833548 L9.99782879,6.73176129 C10.0082378,6.6449129 9.97956512,6.55794194 9.91902679,6.49279032 C9.8584246,6.42757742 9.77170408,6.39025161 9.680705,6.39025161 L6.80730547,6.39025161 L6.80730547,4.41155484 C6.80730547,3.81507742 7.14192663,3.51260968 7.80197324,3.51260968 C7.89603755,3.51260968 9.680705,3.51260968 9.680705,3.51260968 C9.85708356,3.51260968 10,3.37538065 10,3.20615806 L10,0.308719355 C10,0.139435484 9.85708356,0.00226774194 9.680705,0.00226774194 L7.09154188,0.00226774194 C7.0732782,0.00140967742 7.03272774,0 6.97295571,0 C6.52370765,0 4.96216354,0.0846419355 3.72866311,1.17377097 C2.36195281,2.3807 2.55193333,3.82580323 2.59733708,4.07635806 L2.59733708,6.39019032 L0.319294997,6.39019032 C0.14291644,6.39019032 0,6.52735806 0,6.69664194 L0,9.8128871 C0,9.98217097 0.14291644,10.1194 0.319294997,10.1194 Z" id="XMLID_835_"></path>
                </g>
            </g>
        </g>
    </g>
</svg>