<?xml version="1.0" encoding="UTF-8"?>
<svg width="84px" height="151px" viewBox="0 0 84 151" version="1.1" xmlns="http://www.w3.org/2000/svg" xmlns:xlink="http://www.w3.org/1999/xlink">
    <!-- Generator: Sketch 52.6 (67491) - http://www.bohemiancoding.com/sketch -->
    <title>Group 6</title>
    <desc>Created with Sketch.</desc>
    <g id="Design" stroke="none" stroke-width="1" fill="none" fill-rule="evenodd">
        <g id="1-1---Main" transform="translate(-562.000000, -2689.000000)">
            <g id="Group" transform="translate(144.000000, 2675.000000)">
                <g id="Group-6" transform="translate(416.000000, 14.000000)">
                    <polyline id="Fill-5" fill="#363A68" points="85.0418071 50 86 50.9842099 78.4056836 63 78 63 85.0418071 50"></polyline>
                    <path d="M38.13153,26 C38.13153,26 33.0733199,29.3854624 29.9260493,37.6357668 C26.7787787,45.8856477 27.0035094,47.0285351 27.0035094,47.0285351 L40.0422613,50 C40.0422613,50 39.5894676,38.8392186 43,35.3713802 L38.13153,26" id="Fill-8" fill="#FC7575"></path>
                    <path d="M39.8099383,26 C39.8099383,26 37.5223145,27.4001556 35,30.5986535 C36.6970114,35.1929721 39.9902305,38.12787 42.909321,39 C43.3791465,37.4175744 44.0485812,36.0196894 45,35.1349678 L39.8099383,26" id="Fill-9" fill="#FD5E5A"></path>
                    <path d="M72.0719275,64.7546767 C72.0719275,64.7546767 73.0498585,61.5315736 74.8109078,61.0646345 C76.5719571,60.5972338 79.0421635,60.7733458 79.0421635,60.7733458 C79.0421635,60.7733458 82.6865638,55.6457867 84.3008993,56.0194764 C85.9149931,56.393397 83.9095819,59.52302 83.9095819,59.52302 C83.9095819,59.52302 84.9293276,59.7099803 84.9293276,60.7841941 C84.9293276,61.8584079 84.3008993,62.8862279 84.3008993,62.8862279 C84.3008993,62.8862279 85.2640864,63.3067732 84.9293276,64.8952432 C84.594327,66.4830208 79.9961659,69.3792896 75.5937844,68.9587444 C71.1911611,68.5386607 72.0719275,64.7546767 72.0719275,64.7546767" id="Fill-10" fill="#FC7575"></path>
                    <polyline id="Fill-11" fill="#000000" points="19.5160915 101 15 99.7607484 15.4839085 99 20 100.239557 19.5160915 101"></polyline>
                    <path d="M23.3100964,59 C23.3100964,59.7443427 16.19961,98.1822156 14,100.468045 L15.3300409,101 C15.3300409,101 22.9548375,74.6248921 23.7366346,71.0152831 C24.5186213,67.4052801 23.3100964,59 23.3100964,59" id="Fill-12" fill="#000000"></path>
                    <polygon id="Fill-13" fill="#749BFE" points="19 96 10 127.57222 42.492795 133 48 101.315029 20 95"></polygon>
                    <polygon id="Fill-14" fill="#18287D" points="10 128 20 95 18.2687945 95.8702503 7 125.011029"></polygon>
                    <polyline id="Fill-15" fill="#FFFFFF" points="71 63.512775 74.4197345 61 79 68.7774822 73.1375981 75 71 63.512775"></polyline>
                    <path d="M45.0104112,48.007993 C44.6476124,47.4840928 53.8724182,72.8597067 56.1499335,81.3513636 C58.4272512,89.8432185 60.3660621,102 60.3660621,102 L60.641963,100.096779 C61.4163419,94.7507011 60.9308986,89.3011094 59.2213796,84.1778915 C55.480622,72.9671784 48.6115396,53.2054317 45.0104112,48.007993" id="Fill-16" fill="#ECAB01"></path>
                    <path d="M38.1635041,115.043459 L27.6909569,167.076289 C27.6909569,167.076289 10.6727898,199.513733 8.92733153,204.957624 L5,210.508417 C5,210.508417 7.94554918,212.142189 9.25459231,214.64529 C10.5636354,217.148391 10.7819441,219 10.7819441,219 L17.3273619,219 L13.5091846,216.170145 C13.5091846,216.170145 11.9818329,209.312334 12.5274023,206.698298 C13.0727695,204.086279 37.4000303,170.015063 37.4000303,170.015063 L53,137.793438 C53,137.793438 42.8543093,113.845964 38.1635041,115.043459" id="Fill-17" fill="#0F1D5B"></path>
                    <path d="M26,102 C26,103.314755 29.3723819,120.842386 36.3421099,125.662748 C43.3120463,130.482907 43.3120463,130.482907 43.3120463,130.482907 L59.2751398,177.371167 L75.912918,219 C75.912918,219 80.634461,217.903863 85.8053076,217.903863 C90.9765709,217.903863 93,214.398256 93,214.398256 C93,214.398256 82.5454079,214.069415 81.083973,212.644437 C79.6227464,211.22149 78.0990297,208.044723 78.0990297,208.044723 L56.5772343,104.41008 L26,102" id="Fill-18" fill="#0F1D5B"></path>
                    <path d="M80.9879548,213.016209 C79.5558026,211.58848 56.9688322,104.418178 56.9688322,104.418178 L27,102 C27,103.319173 30.3052808,120.905697 37.1363306,125.742256 C43.9675846,130.578611 43.9675846,130.578611 43.9675846,130.578611 L59.6130569,177.624418 L74.985573,217 C77.0212095,215.737244 79.0278559,214.415424 81,213.026392 C80.9963252,213.022319 80.9912213,213.020282 80.9879548,213.016209" id="Fill-19" fill="#18287D"></path>
                    <path d="M44.8695782,10.402684 C47.7764412,11.690592 51,14.7354295 51,19.8661456 C51,24.9970729 51,30.740686 51,30.740686 L48.6746271,29.4439047 C48.6746271,29.4439047 47.8291259,37.0830412 44.8695782,38.6794048 C41.9098346,40.2757684 36.2022612,35.8287253 35.1452379,27.1634456 C34.0882146,18.4979546 38.9502868,7.78017723 44.8695782,10.402684" id="Fill-20" fill="#FC7575"></path>
                    <path d="M28.9036066,34 C28.9036066,34 28.1371019,40.1760559 25.8377907,42.4516458 C23.5384795,44.7270348 20.363105,58.7052277 22.9908892,70.4074292 C25.6188763,82.1096307 24.0858669,109.848777 24.0858669,109.848777 L28.0277461,112.015748 C28.0277461,112.015748 30.8746476,117 40.0722982,117 C49.2697458,117 60,111.149 60,111.149 C60,111.149 50.8025523,70.624066 50.8025523,65.8564503 C50.8025523,61.0888347 42.5152529,43.5352313 42.5152529,43.5352313 L28.9036066,34" id="Fill-21" fill="#0F1D5B"></path>
                    <path d="M26.3156534,63.6276298 C27.9885596,73.8260462 37.8718481,88.8727479 43.6356877,90.7116103 C49.399734,92.5504726 63.9527368,85.1946102 69.1384154,80.011761 C74.3236807,74.8291184 77,72.1542593 77,72.1542593 L72.3164412,61.621692 C72.3164412,61.621692 56.9269853,80.2348036 49.9014405,76.4453511 C42.8758957,72.6556921 44.2314126,55.1875325 42.4576692,51.4234821 C40.6839257,47.6588121 36.1850975,43.7328493 30.1629658,47.578269 C30.1629658,47.578269 24.6429539,53.4296264 26.3156534,63.6276298 Z" id="Fill-22" fill="#18287D"></path>
                    <path d="M42.1681053,21.780728 C42.1681053,21.780728 42.3433792,20.4971442 43.4525817,19.3882799 C44.5620006,18.2796319 45.0291813,13.7282719 46.6057808,13.7282719 C48.182164,13.7282719 51.62727,16.5877923 55.5979813,13.7282719 C59.5682598,10.8694002 59.8603829,8.59372017 57.5246959,7.13498419 C55.1892252,5.67624821 53.4957764,6.20148831 52.1528753,5.4429283 C50.8097579,4.68436829 51.2187303,3.28380011 48.766194,2.99209616 C46.3138741,2.70039221 44.5035759,2 42.1681053,2 C39.8324182,2 38.8980568,4.97607224 38.8980568,4.97607224 C38.8980568,4.97607224 36.3580999,5.18020013 34.5772305,6.95983208 C32.7963611,8.73968027 33.7015102,10.8694002 32.7089406,12.386304 C31.7161545,13.903424 29.5557414,16.2377043 30.0811303,20.7304641 C30.6067356,25.2232239 31.8912121,31 34.1102662,31 C36.329104,31 41.3505932,24.8731359 42.1681053,21.780728" id="Fill-23" fill="#1B2B80"></path>
                    <path d="M39.9701605,0.651875179 L39.9701605,0 C38.3245032,0.236401374 36.4521069,1.05897509 35.5925381,2.20083023 C34.6231988,3.47323218 35.0001974,4.61100773 35.6087337,6 L35.834273,5.93537074 C35.8102795,5.86580303 35.3220108,4.68766104 35.4206843,4.08967936 C35.3996899,2.98003149 36.2121714,1.90473805 37.8656266,1.22001145 C38.74529,0.833738906 39.7482202,0.690953335 39.8453941,0.66905239 C39.93507,0.654237046 40.0571372,0.648654452 39.9701605,0.651875179" id="Fill-24" fill="#1B2B80"></path>
                    <path d="M47.8483704,21.390203 C47.5558704,21.8986462 46.9391639,22.1360049 46.4707069,21.9203636 C46.0022499,21.7049779 45.8594276,21.1180964 46.151642,20.6096531 C46.444142,20.1014654 47.0605628,19.8641067 47.5290199,20.0794924 C47.9977625,20.2951337 48.1405848,20.8817597 47.8483704,21.390203" id="Fill-25" fill="#2846A6"></path>
                    <path d="M46,20 C46,20 47.6316508,18.6764877 49.0124648,18.8824156 C50.3932787,19.0883434 50.8324084,19.4305243 50.8324084,19.4305243 L51,18.264632 C51,18.264632 47.6525722,16.9999562 46,20" id="Fill-26" fill="#2846A6"></path>
                    <path d="M9.57539824,104.049432 C9.67531003,103.927855 9.90286032,104.053935 9.79936318,104.175904 C6.09426122,108.576182 1.78036661,115.296024 2.27012559,122.31834 C2.66164595,127.937525 7.5977185,134.680076 14.8891278,135.776426 C15.0681563,135.803835 15.0148541,136.025063 14.839889,135.997654 C5.85691097,134.644836 -6.00653822,122.554251 9.57539824,104.049432 Z" id="Fill-28" fill="#1B2B80"></path>
                </g>
            </g>
        </g>
    </g>
</svg>