<?xml version="1.0" encoding="UTF-8"?>
<svg width="204px" height="343px" viewBox="0 0 204 343" version="1.1" xmlns="http://www.w3.org/2000/svg" xmlns:xlink="http://www.w3.org/1999/xlink">
    <!-- Generator: Sketch 52.6 (67491) - http://www.bohemiancoding.com/sketch -->
    <title>5272</title>
    <desc>Created with Sketch.</desc>
    <g id="Design" stroke="none" stroke-width="1" fill="none" fill-rule="evenodd">
        <g id="1-1---Main" transform="translate(-1088.000000, -2682.000000)">
            <g id="Group" transform="translate(730.000000, 2675.000000)">
                <g id="5272" transform="translate(358.000000, 7.000000)">
                    <path d="M14.2790414,0.00106678696 C14.2790414,0.00106678696 -8.57937794,-1.10198689 3.54664398,67.6310777 C3.54664398,67.6310777 11.7044166,90.9623102 1.40631995,106 L153,106 L153,0.00106678696 L14.2790414,0.00106678696" id="Fill-5" fill="#AFCDFB"></path>
                    <path d="M150.317656,141.551058 C150.317656,141.551058 139.424721,146.059688 136,157.499758 L137.660796,158 C137.660796,158 143.513332,146.658689 150.027607,143.115272 C156.541882,139.571856 150.317656,141.551058 150.317656,141.551058" id="Fill-21" fill="#599DAD"></path>
                    <path d="M105.136555,128.827141 C105.136555,128.827141 96.0855207,143.565693 102.012764,161 L104.43221,160.269425 C104.43221,160.269425 101.48948,140.959237 106.159248,131.063615 C110.831007,121.167593 105.136555,128.827141 105.136555,128.827141" id="Fill-24" fill="#6BB7BF"></path>
                    <polygon id="Fill-26" fill="#E9F3FE" points="28 343 183 343 183 40 28 40"></polygon>
                    <path d="M184.427585,39.9980487 C184.42558,40 184.42558,40 184.42558,40 L29.337587,40 C30.1954702,28.5856452 28.9031321,20.2968911 26.8319026,14.3366294 C22.8546448,2.87544331 16,0 16,0 L162.263765,0 C174.746076,0 184.42558,7.31973599 187.059977,17.0352845 C187.158216,17.4009591 187.250439,17.7646824 187.330634,18.1284056 C189.830705,29.2442107 184.529833,39.7949178 184.427585,39.9980487" id="Fill-28" fill="#E9F3FE"></path>
                    <path d="M183.431311,39.9980231 C183.429308,40 183.429308,40 183.429308,40 L28.503071,40 C29.3600594,28.4359218 28.0690692,20.0384431 26,14 C41.8329556,16.8615637 81.0453317,22.9597092 123.019538,21.9325117 C150.173192,21.2672846 171.630947,19.4742357 186.331332,17.8415134 C188.828796,29.1031258 183.533453,39.7922277 183.431311,39.9980231" id="Fill-29" fill="#D8E8FD"></path>
                    <path d="M143.469944,100 L61.5280585,100 C60.6871269,100 60,99.2834797 60,98.4079405 L60,97.5916437 C60,96.7161046 60.6871269,96 61.5280585,96 L143.469944,96 C144.310876,96 145,96.7161046 145,97.5916437 L145,98.4079405 C145,99.2834797 144.310876,100 143.469944,100" id="Fill-30" fill="#BBD5FC"></path>
                    <path d="M111.792683,107 L61.2073166,107 C60.5436922,107 60,106.434392 60,105.743439 L60,104.256561 C60,103.565193 60.5436922,103 61.2073166,103 L111.792683,103 C112.456308,103 113,103.565193 113,104.256561 L113,105.743439 C113,106.434392 112.456308,107 111.792683,107" id="Fill-31" fill="#BBD5FC"></path>
                    <path d="M52.4861241,105.087213 L52.4861241,96.9125793 L51.3554724,96.9125793 C50.6679139,96.9125793 50.3252261,96.6405421 50.3252261,96.0952199 C50.3252261,95.7029706 50.5937013,95.4249021 51.1328344,95.2614302 C51.4056751,95.1744948 51.8444029,95.1087733 52.4446523,95.0650976 C53.0449018,95.0216299 53.5272841,95 53.8939819,95 C54.2475834,95 54.4724041,95.0682173 54.5640786,95.2042358 C54.6535703,95.3404624 54.7015903,95.6863323 54.7015903,96.2422614 L54.7015903,105.087213 L55.8671656,105.087213 C56.6223885,105.087213 57,105.397726 57,106.019169 C57,106.673056 56.6223885,107 55.8671656,107 L51.1655753,107 C50.8338011,107 50.5565949,106.915768 50.333957,106.746681 C50.111319,106.577802 50,106.340705 50,106.035391 C50,105.40355 50.3819769,105.087213 51.1481135,105.087213 L52.4861241,105.087213" id="Fill-32" fill="#BBD5FC"></path>
                    <path d="M143.469944,144 L61.5280585,144 C60.6871269,144 60,143.284823 60,142.407484 L60,141.592516 C60,140.717256 60.6871269,140 61.5280585,140 L143.469944,140 C144.310876,140 145,140.717256 145,141.592516 L145,142.407484 C145,143.284823 144.310876,144 143.469944,144" id="Fill-33" fill="#D2E4FD"></path>
                    <path d="M111.792683,150 L61.2073166,150 C60.5436922,150 60,149.434805 60,148.742857 L60,147.257143 C60,146.565195 60.5436922,146 61.2073166,146 L111.792683,146 C112.456308,146 113,146.565195 113,147.257143 L113,148.742857 C113,149.434805 112.456308,150 111.792683,150" id="Fill-34" fill="#D2E4FD"></path>
                    <path d="M57,149.3148 C57,149.7716 56.6142728,150 55.8428184,150 L51.0412526,150 C50.3477868,150 50,149.769857 50,149.30957 C50,149.163115 50.0927431,148.993995 50.2782294,148.800465 C50.5522433,148.542425 50.9527251,148.153623 51.4796748,147.637544 C52.2806384,146.805889 52.9488106,146.087563 53.4862993,145.480821 C53.6717856,145.280318 53.9352605,144.97346 54.2767239,144.560248 C54.5591689,144.14878 54.7003914,143.801821 54.7003914,143.519372 C54.7003914,143.203797 54.5781391,142.944014 54.3357422,142.73828 C54.0912376,142.532546 53.7792833,142.429678 53.3977718,142.429678 C53.0267992,142.429678 52.7043059,142.525571 52.4302921,142.719101 C52.2448058,142.849864 52.0993677,143.090469 51.9918699,143.446145 C51.854863,143.906432 51.7684432,144.173189 51.7283951,144.246416 C51.5829569,144.504456 51.3426679,144.633475 51.0117435,144.633475 C50.7187594,144.633475 50.4890093,144.544556 50.3224932,144.366718 C50.1665161,144.213289 50.0885276,144.011042 50.0885276,143.76172 C50.0885276,143.479272 50.1412225,143.191592 50.2487203,142.90217 C50.4847937,142.279737 50.8979223,141.803758 51.4944294,141.472491 C52.0593195,141.156916 52.7485697,141 53.5579645,141 C54.4474556,141 55.1894008,141.223169 55.7838001,141.667764 C56.3992773,142.136769 56.707016,142.734793 56.707016,143.461836 C56.707016,144.004068 56.4878049,144.561991 56.0472749,145.13735 C55.804878,145.452925 55.3011141,146.010849 54.5401987,146.81112 C54.1502559,147.224332 53.5347787,147.822356 52.6958747,148.606935 L55.857573,148.606935 C56.6184884,148.606935 57,148.842309 57,149.3148" id="Fill-35" fill="#D2E4FD"></path>
                    <path d="M143.469944,188 L61.5280585,188 C60.6871269,188 60,187.283117 60,186.408312 L60,185.591688 C60,184.716883 60.6871269,184 61.5280585,184 L143.469944,184 C144.310876,184 145,184.716883 145,185.591688 L145,186.408312 C145,187.283117 144.310876,188 143.469944,188" id="Fill-36" fill="#D2E4FD"></path>
                    <path d="M111.792683,194 L61.2073166,194 C60.5436922,194 60,193.434511 60,192.744283 L60,191.255717 C60,190.565489 60.5436922,190 61.2073166,190 L111.792683,190 C112.456308,190 113,190.565489 113,191.255717 L113,192.744283 C113,193.434511 112.456308,194 111.792683,194" id="Fill-37" fill="#D2E4FD"></path>
                    <path d="M56,190.701023 C56,191.707907 55.6447639,192.518326 54.936345,193.128186 C54.2648871,193.709395 53.4147844,194 52.3839836,194 C51.587269,194 50.9055441,193.811721 50.3429158,193.433116 C49.4476386,192.833488 49,192.11107 49,191.267907 C49,191.026419 49.0780287,190.817674 49.2340862,190.643721 C49.3901437,190.469767 49.5893224,190.381767 49.8316222,190.381767 C50.0841889,190.381767 50.3223819,190.551628 50.5462012,190.889302 C50.9055441,191.452093 51.1149897,191.763163 51.174538,191.820465 C51.4948665,192.160186 51.9075975,192.328 52.412731,192.328 C53.0944559,192.328 53.5790554,192.076279 53.8706366,191.572837 C54.0061602,191.321116 54.0759754,191.00186 54.0759754,190.613023 C54.0759754,189.665488 53.5154004,189.137488 52.3983573,189.03107 C51.7659138,188.971721 51.449692,188.705674 51.449692,188.230884 C51.449692,187.882977 51.6344969,187.635349 52,187.490047 C52.6858316,187.238326 53.0349076,187.107349 53.0431211,187.097116 C53.4106776,186.855628 53.5934292,186.434047 53.5934292,185.832372 C53.5934292,185.474233 53.486653,185.191814 53.275154,184.98307 C53.0616016,184.774326 52.7761807,184.669953 52.4168378,184.669953 C51.9712526,184.669953 51.6221766,184.776372 51.3716632,184.989209 C51.1581109,185.173395 50.9774127,185.488558 50.8336756,185.934698 C50.7166324,186.274419 50.4948665,186.442233 50.164271,186.442233 C49.9322382,186.442233 49.7412731,186.341953 49.5913758,186.137302 C49.4414784,185.934698 49.3655031,185.711628 49.3655031,185.47014 C49.3655031,185.169302 49.4476386,184.868465 49.613963,184.567628 C49.8850103,184.064186 50.3039014,183.673302 50.8665298,183.390884 C51.3819302,183.12893 51.9466119,183 52.5585216,183 C53.3839836,183 54.0718686,183.247628 54.6221766,183.746977 C55.1704312,184.246326 55.4455852,184.903256 55.4455852,185.715721 C55.4455852,186.696 55.036961,187.469581 54.2217659,188.042605 C55.4065708,188.517395 56,189.403535 56,190.701023" id="Fill-38" fill="#D2E4FD"></path>
                    <path d="M133.418552,60 L82.5814485,60 C81.7121491,60 81,59.1995079 81,58.220756 L81,56.7790204 C81,55.8009394 81.7121491,55 82.5814485,55 L133.418552,55 C134.287851,55 135,55.8009394 135,56.7790204 L135,58.220756 C135,59.1995079 134.287851,60 133.418552,60" id="Fill-39" fill="#BBD5FC"></path>
                    <path d="M147.042073,67 L68.9599353,67 C67.8815693,67 67,66.0182965 67,64.8182876 L67,64.1823835 C67,62.9821508 67.8815693,62 68.9599353,62 L147.042073,62 C148.118431,62 149,62.9821508 149,64.1823835 L149,64.8182876 C149,66.0182965 148.118431,67 147.042073,67" id="Fill-40" fill="#BBD5FC"></path>
                    <path d="M99.5,207 C82.5938171,207 66.550297,204.869232 54.5913844,201.823897 C42.508088,198.747129 36,193.718316 36,189.257909 C36,185.215394 41.3023664,181.49728 51.3373405,178.505742 C41.7216606,181.372758 36.5777834,185.582712 36.5777834,189.257909 C36.5777834,193.336289 43.2443605,197.373161 54.868239,200.333065 C66.7870277,203.367721 82.6359472,205.039089 99.5,205.039089 C116.362047,205.039089 132.212972,203.367721 144.129755,200.333065 C155.753633,197.373161 162.42021,193.336289 162.42021,189.257909 C162.42021,184.938948 155.400543,179.571227 144.099662,175.249647 C131.252006,170.335684 115.411111,168.512593 99.5,168.512593 C69.6257898,168.512593 57.329837,172.015112 46.6588999,176.40399 C57.3759794,171.99597 69.5214678,167 99.5,167 C115.47531,167 131.382409,169.71892 144.292256,174.655652 C155.831875,179.068708 163,184.663711 163,189.257909 C163,193.718316 156.34546,197.869031 144.262164,200.946 C132.303251,203.991336 116.406183,207 99.5,207" id="Fill-41" fill="#C65447"></path>
                    <path d="M189,245.149852 C189,245.149852 188.427497,250.76136 187.80145,251.822098 C187.173344,252.884915 184.504408,256.275115 183.367639,256.940676 C182.230869,257.606236 184.061644,252.473099 183.830996,251.472678 C183.598287,250.474337 182.893985,253.296731 182.393559,253.363287 C181.891074,253.429843 182.020814,250.888233 182.00228,249.964767 C181.983746,249.039222 184.440567,246.757597 185.30756,244.790033 C186.172493,242.822469 189,245.149852 189,245.149852" id="Fill-42" fill="#FFB27D"></path>
                    <path d="M122,196.471401 L120.766055,194.099102 C120.766055,194.099102 121.379047,189.871067 116.180558,187.196779 C116.180558,187.196779 114.279885,186.408447 113.207149,187.987546 C112.219994,189.442118 115.08991,189.179273 114.936662,191.667378 C114.781424,194.155484 115.94173,195.615532 117.553819,196.425971 L118.887275,198 L122,196.471401" id="Fill-43" fill="#FFB27D"></path>
                    <path d="M172,189.803029 C172,189.803029 167.545839,211.702565 143.035046,218.859978 C135.381753,221.093935 118,195.857588 118,195.857588 C118,195.857588 118.609642,193.53113 122.438275,194.065649 C122.438275,194.065649 139.365278,205.290533 141.496047,206.510158 C143.386533,207.591926 155.821645,192.601144 161.489133,190.182782 C167.158607,187.764818 172,189.803029 172,189.803029" id="Fill-44" fill="#E58638"></path>
                    <polyline id="Fill-45" fill="#C65447" points="130 189.486854 129.288919 194 106 190.513146 106.711081 186 130 189.486854"></polyline>
                    <polyline id="Fill-46" fill="#FFB27D" points="100 187.60194 104.383803 191 105 186 100 187.60194"></polyline>
                    <path d="M131.98867,191.026832 L131.847801,192.547061 C131.761503,193.481986 131.234829,194.123415 130.67262,193.979937 L130,193.808186 L130.444183,189 L131.17645,189.186943 C131.705662,189.322403 132.069892,190.146133 131.98867,191.026832" id="Fill-47" fill="#FFB27D"></path>
                    <path d="M201.389591,328.27373 C201.389591,328.27373 204.532825,330.961647 203.921013,332.872242 C203.307149,334.782837 200.46982,336.056567 200.085898,338.390457 C199.704029,340.72627 198.170394,342 196.788685,342 C195.409029,342 190.208629,342 190.208629,342 C190.208629,342 189.192364,340.35685 191.64577,339.862365 C194.10123,339.365957 195.025106,336.622242 194.87318,334.074782 C194.719201,331.527322 195.103123,328.131349 195.103123,328.131349 L200.315841,327 L201.389591,328.27373" id="Fill-48" fill="#233862"></path>
                    <path d="M164.884017,336.336592 C164.884017,336.336592 165.458866,342.371806 164.049016,343 L146,342.967736 C146,342.967736 146,341.083155 148.897326,340.663727 C151.796749,340.244299 156.890671,338.708925 157.752945,335.28897 C158.61522,331.869016 164.884017,336.336592 164.884017,336.336592" id="Fill-49" fill="#233862"></path>
                    <path d="M148,246.528317 C148,246.528317 148.930988,257.565064 150.023977,270.830937 C151.510687,288.852015 153.298841,310.98886 153.475195,315.181834 C153.78074,322.465097 155.007019,334.113567 155.007019,334.113567 C155.007019,334.113567 157.91687,336.879188 163.738623,335.713153 C163.738623,335.713153 168.926729,319.085774 170.409338,301.492308 C170.431895,301.205253 170.454452,300.91424 170.477009,300.623226 C171.857087,282.71301 174,245 174,245 L148,246.528317" id="Fill-50" fill="#2B478B"></path>
                    <path d="M148,246.542052 C148,246.542052 148.930988,257.677986 150.023977,271.063078 L170.409338,302 C170.431895,301.710366 170.454452,301.416737 170.477009,301.123108 C171.857087,283.051934 174,245 174,245 L148,246.542052" id="Fill-51" fill="#233862"></path>
                    <path d="M153,247.289209 C153,247.289209 169.37501,287.709185 180.140879,306.703971 C190.906748,325.700759 194.271833,331 194.271833,331 C194.271833,331 200.439486,328.571598 201,326.913959 C201,326.913959 196.882225,290.243692 189.673617,281.304851 C185.599883,276.253855 180.813496,261.094863 180.58929,255.79362 C180.365085,250.492377 179.131954,240 179.131954,240 L153,247.289209" id="Fill-52" fill="#2B478B"></path>
                    <path d="M175,185.246797 C175,185.246797 164.217421,190.52189 158,188.564471 C158,188.564471 159.529513,186.607646 162.208596,185.151385 C161.992321,183.886343 161.826705,182.788418 161.729284,181.857613 C161.466246,179.709174 161.466246,178.492133 161.466246,178.492133 L165.626132,175.174459 L169.571691,172 C169.261891,180.926609 175,185.246797 175,185.246797" id="Fill-53" fill="#FFB27D"></path>
                    <path d="M179.999648,242.131402 C180.026113,242.802917 178.552234,243.571781 177.902831,243.859856 C173.080152,245.924067 168.583192,247.364445 163.487723,247.843247 C157.468026,248.443239 150.346992,247.124051 147.900026,247.171733 C147.64963,247.171733 147.425698,247.07637 147.226195,246.907498 C147.051121,246.788294 146.924905,239.705607 147.051121,230.801089 C147.051121,230.439505 147.051121,230.079907 147.07555,229.720309 L147.07555,229.599119 C147.126443,226.11837 147.250624,222.470736 147.425698,218.821116 C147.775846,210.803474 148.423213,203.073709 149.522515,198.800852 C150.847785,193.759727 153.844401,190.423017 156.568227,187.998413 L158.815689,186.077842 C161.065187,186.510155 163.43683,186.390156 165.810508,185.262092 C168.408118,184.037472 171.207267,182.717291 171.657167,183.053048 C175.054824,185.477652 177.35318,190.92705 178.576663,197.888745 C179.274923,201.897765 179.625071,206.386778 179.600642,211.09155 C179.600642,212.819209 179.549749,214.597331 179.449997,216.349626 C178.851488,225.854135 179.449997,234.112966 179.800145,238.889061 C179.899897,240.281758 179.975219,241.362538 179.999648,242.131402" id="Fill-54" fill="#EE9849"></path>
                    <path d="M180,241 C141.837416,240.922174 172.96181,199.034859 172.96181,199.034859 L179.145335,197 C179.633715,201.302198 179.877905,206.119247 179.860181,211.168578 C179.860181,213.022441 179.826704,214.930183 179.75581,216.809988 C179.336354,227.01122 179.75581,235.873442 180,241" id="Fill-55" fill="#E58638"></path>
                    <path d="M170,174.249941 C170,174.249941 167.333333,179.524769 162.257327,181 C162,178.749704 162,177.474965 162,177.474965 L166.069574,174 L170,174.249941" id="Fill-56" fill="#ED985F"></path>
                    <path d="M158.964305,178.796528 C158.964305,178.796528 169.025932,180.483163 169.971294,174.144415 C170.914751,167.805472 172.851218,163.753915 166.466212,162.40945 C160.081205,161.0644 158.468752,163.293195 157.643466,165.331571 C156.818181,167.370142 156.370277,178.194605 158.964305,178.796528" id="Fill-57" fill="#FFB27D"></path>
                    <path d="M173.216945,160.668146 C173.309981,160.555811 173.523189,160.465165 174,160.437542 C174,160.437542 173.620102,160.185862 173.110341,160.172562 C173.009552,159.47277 172.656789,158.233606 171.515157,157.932614 C171.515157,157.932614 172.129584,158.277804 172.209052,159.021998 C170.887162,157.588857 168.055372,156.545716 160.213192,157.199469 C149.878416,158.0605 153.28393,165.046347 154.621326,165.879345 C155.96066,166.711933 159.327409,164.429016 161.821944,164.637725 C164.31454,164.84664 164.787474,168.649661 165.634491,169.171436 C166.47957,169.69321 166.146191,168.77059 167.291699,168.224466 C168.43527,167.678546 168.543812,169.68032 168.214309,170.981687 C167.882867,172.283054 169.454792,174 169.454792,174 C169.454792,174 169.454792,174 171.044161,172.193432 C172.63353,170.387068 174.131801,162.735806 173.408832,161.105004 C173.34487,160.960544 173.280907,160.814856 173.216945,160.668146" id="Fill-58" fill="#2C3A64"></path>
                    <path d="M171.099472,183 C171.099472,183 177.839065,186.157266 181.068663,191.011129 C186.0815,198.540026 191.891146,225.980179 191.99806,228.521082 C192.104973,231.061985 187.757825,249 187.757825,249 C187.757825,249 183.348143,248.712577 182.21042,246.510993 C182.21042,246.510993 183.091953,228.079967 182.533178,226.894345 C181.976421,225.708724 164.152104,202.170343 166.157239,197.14722 C168.160356,192.124296 171.099472,183 171.099472,183" id="Fill-59" fill="#EE9849"></path>
                    <path d="M120.922831,193.04306 C120.922831,193.04306 121.358367,191.68234 120.160041,191.070727 C118.964122,190.458925 117.862048,188.795528 117.35673,189.020829 C116.31,189.487551 117.929424,190.939112 117.633452,192.749675 C117.529982,193.383667 119.402065,195.044978 120.922831,193.04306" id="Fill-60" fill="#FFB27D"></path>
                    <path d="M148.835464,229 L53.1645357,229 C52.5229348,229 52,228.550562 52,227.999136 C52,227.449438 52.5229348,227 53.1645357,227 L148.835464,227 C149.475054,227 150,227.449438 150,227.999136 C150,228.550562 149.475054,229 148.835464,229" id="Fill-65" fill="#D2E4FD"></path>
                    <path d="M136.916521,223 L54.0814759,223 C53.4866642,223 53,222.578584 53,222.06563 L53,221.932642 C53,221.419689 53.4866642,221 54.0814759,221 L136.916521,221 C137.511333,221 138,221.419689 138,221.932642 L138,222.06563 C138,222.578584 137.511333,223 136.916521,223" id="Fill-68" fill="#D2E4FD"></path>
                    <path d="M148.835464,261 L53.1645357,261 C52.5229348,261 52,260.550562 52,259.999136 C52,259.449438 52.5229348,259 53.1645357,259 L148.835464,259 C149.475054,259 150,259.449438 150,259.999136 C150,260.550562 149.475054,261 148.835464,261" id="Fill-65" fill="#D2E4FD"></path>
                    <path d="M136.916521,255 L54.0814759,255 C53.4866642,255 53,254.578584 53,254.06563 L53,253.932642 C53,253.419689 53.4866642,253 54.0814759,253 L136.916521,253 C137.511333,253 138,253.419689 138,253.932642 L138,254.06563 C138,254.578584 137.511333,255 136.916521,255" id="Fill-68" fill="#D2E4FD"></path>
                    <path d="M148.835464,292 L53.1645357,292 C52.5229348,292 52,291.550562 52,290.999136 C52,290.449438 52.5229348,290 53.1645357,290 L148.835464,290 C149.475054,290 150,290.449438 150,290.999136 C150,291.550562 149.475054,292 148.835464,292" id="Fill-65" fill="#D2E4FD"></path>
                    <path d="M136.916521,286 L54.0814759,286 C53.4866642,286 53,285.578584 53,285.06563 L53,284.932642 C53,284.419689 53.4866642,284 54.0814759,284 L136.916521,284 C137.511333,284 138,284.419689 138,284.932642 L138,285.06563 C138,285.578584 137.511333,286 136.916521,286" id="Fill-68" fill="#D2E4FD"></path>
                </g>
            </g>
        </g>
    </g>
</svg>