<?xml version="1.0" encoding="UTF-8"?>
<svg width="183px" height="131px" viewBox="0 0 183 131" version="1.1" xmlns="http://www.w3.org/2000/svg" xmlns:xlink="http://www.w3.org/1999/xlink">
    <!-- Generator: Sketch 52.6 (67491) - http://www.bohemiancoding.com/sketch -->
    <title>Group 7</title>
    <desc>Created with Sketch.</desc>
    <g id="Design" stroke="none" stroke-width="1" fill="none" fill-rule="evenodd">
        <g id="1-1---Main" transform="translate(-507.000000, -2894.000000)">
            <g id="Group" transform="translate(144.000000, 2860.000000)">
                <g id="Group-7" transform="translate(363.000000, 34.000000)">
                    <path d="M183.703113,143.464274 C181.463508,157.842891 166.806577,167 151.775171,167 L122,167 L124.328249,83.1923481 C124.328249,83.1923481 152.737586,74.0634928 159.872484,82.7475329 C166.122755,90.3550331 183.075373,120.470077 183.967235,138.293477 C184.055878,140.082881 183.963617,141.808894 183.703113,143.464274" id="Fill-55" fill="#F9DDBF"></path>
                    <path d="M104,90.8518076 C104,90.8518076 144.305133,69.9937644 151.938474,83.6188106 C155.992042,90.85328 167.147068,119.716247 167.969399,137.829109 C168.769947,155.428456 153.731992,167 138.261995,167 L110.787411,167 L104,90.8518076" id="Fill-56" fill="#C6916D"></path>
                    <path d="M110.943311,102.721643 C110.604249,104.482351 107.344169,106.116903 102.506632,107.561305 C101.654442,107.817275 100.755109,108.065932 99.810448,108.309103 C83.3486782,112.549064 54.1910925,114.916787 51.411503,113.666191 C47.5712091,111.938393 24,27.4880234 24,27.4880234 C24,27.4880234 46.4996257,26.6352774 64.3684153,26.2195089 C70.4824243,26.0792739 76.0524824,25.9893187 79.996127,26.0010202 C80.4748038,26.0026657 80.9262831,26.0342963 81.3505649,26.095912 C83.0567578,26.3412775 84.3241636,27.0592735 85.3268466,28.1473291 C88.2043472,31.2654099 88.916923,37.4231351 91.5804697,44.2299272 C94.2150056,50.9601111 97.4478875,59.3594025 100.512145,67.6952499 C101.302687,69.8433871 102.08235,71.9867706 102.836629,74.0981578 C103.050583,74.6940195 103.26091,75.2865902 103.471238,75.8758698 C108.00235,88.660111 111.490889,99.8694051 110.943311,102.721643" id="Fill-57" fill="#EFCBAB"></path>
                    <path d="M105.431374,76.4955764 C104.67857,76.3726855 103.708856,76.2134364 102.607903,76.0274639 C102.378234,75.7936804 102.197779,75.5578971 102.090236,75.3222957 C101.647303,74.3513486 101.949882,71.5615801 102.456613,68.3616905 C99.3761305,60.0734639 96.1261308,51.7221556 93.4776453,45.0304197 C90.7999954,38.2625133 90.0836466,32.1399658 87.1909099,29.0396978 C86.1829178,27.9578581 84.9088013,27.2439639 83.1935743,27 C80.8057449,27.0332678 78.2848534,27.074898 75.6837599,27.1228909 C74.7596153,28.9502565 73.1683366,30.6743647 70.417776,32.1183326 C58.1450624,38.5611963 67.2479781,51.8381385 67.2479781,51.8381385 C67.3372939,51.8979478 72.1202436,61.3779979 72.1202436,61.3779979 C72.1038387,60.7155506 72.7472767,59.530817 73.8500528,58.0221314 C74.6648312,63.6898372 75.9881626,69.4769798 77.5703273,73.6194571 C76.7045114,77.9958996 74.4789086,84.514752 73.2868167,89.5005588 C72.3335078,93.4770606 72.0400417,96.4744348 73.6130926,96.6216857 C73.7899014,96.6380469 73.9867606,96.636229 74.198202,96.6216857 C74.0997724,98.0087529 74.3713652,99.4685366 75.1569792,100.98104 C78.231993,106.91107 93.027421,107.978185 104.46166,108 C109.324812,106.563849 112.602153,104.938635 112.943011,103.187986 C113.493488,100.352042 109.986477,89.2067842 105.431374,76.4955764" id="Fill-59" fill="#E0B594"></path>
                    <path d="M160.081618,154.025808 C154.317423,162.009648 145.476088,167.126613 135.627787,166.967442 L93.2862649,166.989147 L73,167 L95.8245427,92.062418 C95.8245427,92.062418 153.591682,86.332828 160.714827,93.9733666 C164.022389,97.5203332 165.880285,113.583877 166.919909,129.775843 C167.505944,138.906433 164.840662,147.441943 160.081618,154.025808" id="Fill-60" fill="#C6916D"></path>
                    <path d="M107.688728,38 C107.688728,38 111.241149,43.2705508 113.267439,54.3504271 C115.040901,64.0544347 116.598177,67.6370205 119.159438,69.6269785 C121.72253,71.6171203 136,77.492392 136,77.492392 L134.931892,80 C134.931892,80 114.005771,77.1424548 111.655201,73.6357346 C109.304631,70.1290145 100.343883,49.4101583 101.038245,44.638337 C101.734439,39.8666993 107.688728,38 107.688728,38" id="Fill-62" fill="#FD5E5A"></path>
                    <path d="M97.9565939,80.5657514 C97.9565939,80.5657514 138.495575,77.5177265 146.128094,82.3296302 C153.758789,87.1417162 166,143.192104 166,143.192104 C166,143.192104 165.244955,143.797008 163.556135,143.979209 C161.987684,144.148655 158.531621,143.226722 158.531621,143.226722 C158.531621,143.226722 140.941264,118.148705 139.701093,111.830007 C138.462747,105.513131 138.765494,99.8740389 135.944106,99.7246348 C133.122719,99.5734088 97.9511226,103.995404 92.6293327,94.632143 C87.3093666,85.2688817 91.7083238,76 91.7083238,76 L97.9565939,80.5657514" id="Fill-65" fill="#0F1D5B"></path>
                    <path d="M90.4005219,83 C90.4005219,83 126.212849,84.7004757 133.610726,89.7986276 C141.008604,94.8971435 151,151.3025 151,151.3025 C151,151.3025 150.225572,151.875633 148.542505,151.992079 C146.975511,152.101247 143.576732,151.045955 143.576732,151.045955 C143.576732,151.045955 127.068892,125.338678 126.082267,118.986912 C125.095641,112.633327 125.614345,107.020265 122.817697,106.760081 C120.019236,106.499897 84.8979087,109.547507 79.9738497,99.9971149 C75.0497907,90.4474502 90.4005219,83 90.4005219,83" id="Fill-68" fill="#18287D"></path>
                    <path d="M98.0871614,2.91151968 C99,1 100,1 100,1 C99,3.33955086e-13 96.3698618,3.01805389 96.3698618,3.01805389 C84.832486,-2.33780959 81.8096792,14.9860567 81.7881005,19.0563114 C81.7647237,23.1262062 81.4842014,27.7940962 75.3306946,31.0352916 C63.2232832,37.4124079 72.2053892,50.5551664 72.2053892,50.5551664 C72.293502,50.6152718 77.0120297,60 77.0120297,60 C76.9311099,56.7040979 93.1852152,40.4250586 101.410271,35.7737246 C103.515986,33.0756377 104.530182,28.1286353 104.607505,27.7392095 C104.014093,31.6753967 103.18871,33.8507101 102.499992,35.0607372 C109.58138,29.3600772 107.173564,6.95352122 102.9963,4.19550886 C101.42106,3.15446087 99.4645974,2.92195716 98.0871614,2.91151968 Z" id="Fill-69" fill="#B5453C"></path>
                    <path d="M88,32 C88,32 92.3401109,32.128792 95.8011841,32.4262403 C98.1550152,32.6282871 100.665141,32.8627023 101.990818,33.3642417 C105.267351,34.6036095 104.924633,39.8527372 98.0476805,38.8806639 C93.4053612,38.2243462 90.687987,36.0279494 89.5604644,34.1909949 C89.1986338,33.6015022 88.678479,32.8711705 88,32 Z" id="Fill-70" fill="#FC7575"></path>
                    <path d="M101.744891,36.3894052 C101.785787,36.4098519 102.759484,41.1853215 98.1032633,40.9944258 C95.0458537,40.8690317 88.4539229,37.4323655 89.0361939,35.0006613 C89.3127239,33.8446111 91.622334,30.8454671 92.0877613,24 L92.6427688,24.1382411 L102,26.4698833 C102,26.4698833 101.585205,29.2289149 101.390465,31.8402963 C101.226884,34.0329737 101.221042,36.1216083 101.744891,36.3894052" id="Fill-71" fill="#FC7575"></path>
                    <path d="M102,26.421839 C102,26.421839 101.601041,29.2876004 101.413736,32 C96.3209157,31.5143542 93.9346514,26.6629704 93,24 L102,26.421839" id="Fill-72" fill="#FD5E5A"></path>
                    <path d="M91.7716947,23 C91.7716947,23 89.4194032,18.9325975 89.025514,15.556157 C88.7457422,13.1452293 90.6618107,4.39471739 100.013918,6.25827315 C100.013918,6.25827315 102.738012,6.68419909 105.200739,8.48218786 C107.157301,9.91203268 109.916366,12.9070083 106.062142,20.4060383 L105.01852,22.955366 L91.7716947,23" id="Fill-73" fill="#B5453C"></path>
                    <path d="M103.208957,29 C103.208957,29 91.5367379,28.3861861 92.0142624,20.7645685 C92.4899781,13.1431407 91.3034021,7.93084704 98.7773844,8.00069352 C106.249558,8.07016041 107.513913,11.0781143 107.944408,13.6626239 C108.374904,16.2469437 106.258602,28.9633686 103.208957,29" id="Fill-74" fill="#FC7575"></path>
                    <path d="M104,8.64625428 C104,8.64625428 100.183133,16.7802304 95.1251865,17.6940608 C90.0672404,18.6077142 88,17.1838389 88,17.1838389 C88,17.1838389 92.0151463,14.5061032 93.1589214,9.45488793 C93.1589214,9.45488793 101.829948,4.51807853 104,8.64625428" id="Fill-75" fill="#B5453C"></path>
                    <path d="M105,9.27177897 C105,9.27177897 107.002738,11.358806 107.408742,13.2709219 C107.814746,15.1826716 107.82277,19.0556223 108.814511,18.9993943 C108.814511,18.9993943 111.290653,13.2974791 109.085715,9.79779402 C106.749187,6.08656736 105,9.27177897 105,9.27177897" id="Fill-76" fill="#B5453C"></path>
                    <path d="M107.78742,83.3912628 C105.325419,83.8057026 102.741394,84.3251703 100.903866,85.4261346 C96.7281547,87.9248496 83.0902489,96.3715528 79.0939836,95.987304 C77.543569,95.837264 77.8342717,92.821094 78.772775,88.8186854 C80.2496166,82.4976099 83.3432679,73.7195378 83.3432679,69.9024835 C83.3432679,67.8193062 84.0233687,62.8897601 84.9295717,57.2535623 C85.0031446,56.7994168 85.078512,56.3416119 85.1538793,55.8788665 C86.9501351,44.920823 88.5,32 88.5,32 C88.5,32 92.2114956,38.1704866 97.6146186,38.1704866 C103.017742,38.1704866 102,33.4 102,33.4 C102,33.4 106.694593,34.0562799 107.859198,35.3356454 C109.025598,36.6151939 111.979281,42.1461808 112.56607,43.6546317 C112.56607,43.6546317 112.684505,45.5738629 108.024289,46.4876431 C108.024289,46.4876431 109.160183,51.6978738 109.294767,55.1707509 C109.393462,57.736435 107.577468,65.7665027 107.055279,70.7611881 C106.868655,72.5301963 106.845327,73.9184323 107.127058,74.5480514 C107.487745,75.3547909 108.654144,76.1584198 109.980251,76.9466787 C112.614521,78.5102053 115.889412,80.0153627 114.776846,81.3735907 C113.840138,82.5159075 110.913371,82.8666717 107.78742,83.3912628 Z" id="Fill-77" fill="#18287D"></path>
                    <path d="M109.48346,77.1474931 C112.521896,82.2930776 101.243046,83.840193 99.3766046,84.9296013 C95.1370111,87.4022701 82.1703438,96.3684783 78.1111974,95.9882627 C76.5363871,95.8397975 76.831664,92.8552861 77.7849346,88.8948879 C79.2850143,82.6401601 82.4273441,73.9542252 82.4273441,70.1772358 C82.4273441,68.115924 83.1181463,63.2381199 84.0386084,57.6610812 L88.927082,53 C88.927082,53 94.1636908,66.4447859 99.1560582,68.6482259 C101.771629,69.8020897 104.503852,70.5639694 106.512464,71.0269271 C106.322903,72.7773673 106.299208,74.151032 106.585372,74.7740424 C106.951734,75.5723142 108.136487,76.3675079 109.48346,77.1474931" id="Fill-78" fill="#0F1D5B"></path>
                    <path d="M87.4453963,36.6723664 C87.4453963,36.6723664 83.2570825,34.1196185 79.2094142,38.9621939 C75.1599194,43.8044027 82.0862543,78.4191366 88.0865207,80.1972411 C94.7498302,82.1724442 114,79.8809666 114,79.8809666 L113.629207,76.8614158 C113.629207,76.8614158 93.1351467,72.9172433 92.2839673,71.8182581 C91.432788,70.7190895 89.5733447,37.2306597 87.4453963,36.6723664" id="Fill-79" fill="#FC7575"></path>
                    <path d="M78.0928782,35.5286001 C75.1857565,39.0572002 75,45.8019909 75,45.8019909 C75,45.8019909 82.2569741,51.7871275 91,49.4645319 L88.7262882,32 C88.7262882,32 81,32 78.0928782,35.5286001 Z" id="Fill-80" fill="#18287D"></path>
                    <polygon id="Fill-81" fill="#18287D" points="116 83 127 83 127 81 116 81"></polygon>
                    <path d="M135.308218,65 L158,65 L158,66 L146.617146,81.555642 L125,82 C125.109988,81.5470716 135.308218,65 135.308218,65 Z" id="Fill-82" fill="#18287D"></path>
                    <path d="M149.575398,37.0494321 C149.67531,36.9278547 149.90286,37.053935 149.799363,37.1759039 C146.094261,41.5761823 141.780367,48.2960237 142.270126,55.3183402 C142.661646,60.9375247 147.597719,67.6800762 154.889128,68.776426 C155.068156,68.8038348 155.014854,69.0250625 154.839889,68.9976538 C145.856911,67.6448364 133.993462,55.5542512 149.575398,37.0494321 Z" id="Fill-28" fill="#1B2B80" transform="translate(148.500000, 53.000000) rotate(128.000000) translate(-148.500000, -53.000000) "></path>
                    <path d="M126,83 C126.109836,82.5520108 136.326356,66 136.326356,66 L158,66 L147.185685,83 L126,83" id="Fill-83" fill="#749BFE"></path>
                    <path d="M144.945153,74.0000767 C144.765262,74.5523671 144.196574,75 143.67431,75 C143.152047,75 142.874957,74.5523671 143.054847,74.0000767 C143.234738,73.4476329 143.803426,73 144.32569,73 C144.847953,73 145.125043,73.4476329 144.945153,74.0000767" id="Fill-84" fill="#FFFFFF"></path>
                    <path d="M112,76.8753648 C112,76.8753648 118.685415,75.7675509 119.441253,76.044426 C120.195261,76.3214578 124.400868,79.5526078 123.96896,80.1989632 C123.538883,80.8451618 121.813083,81.3067771 119.87133,80.7528701 C117.931407,80.1989632 113.7258,79.9219314 112.971792,79.0911493 C112.215954,78.2602105 112,76.8753648 112,76.8753648" id="Fill-85" fill="#FC7575"></path>
                    <path d="M125.607331,144.215895 C123.194738,158.161651 109.948984,167 96.3722671,167 L69,167 L71.1413125,83.1923481 C71.1413125,83.1923481 97.2584522,74.0634928 103.81803,82.7475329 C109.563765,90.3550331 125.149771,120.470077 125.96904,138.293477 C126.064892,140.356362 125.936486,142.332313 125.607331,144.215895" id="Fill-86" fill="#F9DDBF"></path>
                    <path d="M82.6629163,166.780342 C82.4580962,166.794833 82.2532761,166.807513 82.048456,166.820193 C81.6134398,166.84193 81.1784237,166.858233 80.741595,166.863667 C80.5984021,166.865478 80.4515842,166.86729 80.3065788,166.86729 L52.8733725,166.86729 L52.8715599,166.85461 C52.3495405,166.861856 51.8202708,166.86729 51.2873761,166.874536 C48.4615836,166.908952 45.5125366,166.941558 42.7755599,166.965106 C42.3169804,166.970541 41.8656511,166.974164 41.4197596,166.977786 C41.254816,166.977786 41.0880598,166.977786 40.9267413,166.979598 C38.2223908,166.997712 35.8316145,167.006769 34.1259887,166.994089 C31.7279621,166.977786 29.4676907,166.809324 27.3415492,166.4724 C24.5991349,166.039471 22.0814789,165.327583 19.7813309,164.311377 C18.9511751,163.945471 18.1500204,163.537901 17.3760541,163.090481 C16.3356405,162.492712 15.3423536,161.815241 14.4016311,161.063503 C11.9673532,159.11985 9.86115002,156.661754 8.07214608,153.636683 C6.82509976,151.531814 5.7303091,149.149798 4.78414896,146.474332 C3.59147967,143.119583 2.63444412,139.301111 1.89854179,134.982688 C0.843627615,128.818428 0.241855266,121.641585 0.058785967,113.343473 C-0.0137167256,110.001405 -0.0191544276,106.478194 0.0424728612,102.766596 C0.140351496,96.8360094 0.408611459,90.4232229 0.836377346,83.5023333 C1.43996226,73.7835255 2.36074646,63.0624594 3.5787917,51.2616063 C4.68989546,40.4827559 5.96956799,32.9483386 7.83288719,31.2316566 C10.5825518,28.700017 16.3138897,27.6812748 20.3015378,27.2729809 C20.3033503,27.2729809 20.3033503,27.2729809 20.3051629,27.2729809 C22.7811299,27.0199256 24.5791966,27 24.5791966,27 C29.4513776,27 33.7816009,30.4958581 35.3458465,35.690284 C38.5287147,46.2671611 44.2129258,65.1776537 50.1291455,84.9576276 C50.1581466,85.0568933 50.1889603,85.1561591 50.2179613,85.2554249 C50.5569114,86.3913659 50.8976741,87.5307486 51.2384367,88.6717616 C51.2910012,88.8456579 51.3435656,89.0191918 51.3961301,89.192907 C51.7296425,89.0440083 52.0758428,88.8884074 52.4329186,88.7313573 C52.443794,88.7248362 52.4546694,88.7199454 52.4691699,88.7148734 C53.8865976,88.0866732 55.4925322,87.398515 57.2253466,86.6973146 C58.12438,86.3335816 59.054227,85.9649578 60.0148877,85.597602 C62.7210507,84.5607456 65.6447218,83.5354823 68.6064568,82.6524154 C69.9205681,82.258794 71.2437422,81.8932496 72.5596661,81.5691867 C74.2489788,81.1507488 75.9256036,80.7967975 77.5587267,80.5339606 C77.6149163,80.5241789 77.6602305,80.5172955 77.700107,80.5107744 C77.8940517,80.4794368 78.0861838,80.4511787 78.278316,80.4231017 C85.3219526,79.389687 91.4357421,80.1073713 93.9642735,84.5656364 C98.0117364,91.7066135 109.14815,120.194261 109.969243,138.072969 C110.730521,154.558696 97.2413952,165.686244 82.6629163,166.780342" id="Fill-88" fill="#D39E7A"></path>
                    <path d="M39.2967411,92 C39.2967411,92 25.2579141,34.2708628 24.2440389,29.418847 C23.7922229,27.2564167 22.4006296,26.4749868 21,26.2739747 C23.4669154,26.0193351 25.2615286,26 25.2615286,26 C30.1194543,26 34.4370081,29.5089559 35.996677,34.724508 C39.3961406,46.1001136 45.6565032,67.077603 52,88.4439832 C51.678307,88.4355925 39.2967411,92 39.2967411,92" id="Fill-89" fill="#F9DDBF"></path>
                </g>
            </g>
        </g>
    </g>
</svg>