<?xml version="1.0" encoding="UTF-8"?>
<svg width="24px" height="20px" viewBox="0 0 24 20" version="1.1" xmlns="http://www.w3.org/2000/svg" xmlns:xlink="http://www.w3.org/1999/xlink">
    <!-- Generator: Sketch 52.6 (67491) - http://www.bohemiancoding.com/sketch -->
    <title>businessman</title>
    <desc>Created with Sketch.</desc>
    <g id="Symbols" stroke="none" stroke-width="1" fill="none" fill-rule="evenodd">
        <g id="ic/6" transform="translate(0.000000, -2.000000)" fill="#000000">
            <g id="businessman" transform="translate(0.000000, 2.000000)">
                <path d="M14.9704918,13.5906885 C17.2868852,14.4316721 17.1442623,16.3398689 17.1934426,19.9103607 L8.60655738,19.9103607 L8.16393443,19.9103607 L7.67619119e-14,19.9103607 C0.0442622951,16.3398689 -0.0983606557,14.4316721 2.21803279,13.5906885 C4.32295082,12.7890492 5.58196721,11.9677377 5.58196721,11.9677377 L7.2,17.0923279 L7.42131148,17.7857705 L8.1442623,15.7300328 C6.47704918,13.4038033 8.27213115,13.2906885 8.58196721,13.2906885 L8.58688525,13.2906885 L8.59180328,13.2906885 L8.59672131,13.2906885 L8.60163934,13.2906885 C8.91147541,13.2956066 10.7065574,13.4038033 9.03934426,15.7300328 L9.76721311,17.7857705 L9.98852459,17.0923279 L11.6065574,11.9677377 C11.6065574,11.9677377 12.8655738,12.7890492 14.9704918,13.5906885 Z M4.95245902,8.712 C4.74590164,8.6972459 4.48032787,8.412 4.19508197,7.40872131 C3.80655738,6.0267541 4.21967213,5.82019672 4.57377049,5.85462295 C4.50491803,5.66281967 4.4557377,5.47101639 4.42131148,5.28413115 C4.29344262,4.63495082 4.25901639,4.03495082 4.41147541,3.45954098 C4.59344262,2.68740984 5.01147541,2.0677377 5.47868852,1.59068852 C5.77377049,1.27593443 6.10819672,1.00052459 6.46229508,0.774295082 C6.75245902,0.572655738 7.07213115,0.40052459 7.42131148,0.282491803 C7.69672131,0.18904918 7.98688525,0.130032787 8.29180328,0.115278689 C9.24098361,0.0316721311 9.95901639,0.272655738 10.4754098,0.57757377 C11.247541,1.00544262 11.5377049,1.56609836 11.5377049,1.56609836 C11.5377049,1.56609836 13.3032787,1.68904918 12.7032787,5.27429508 C12.6688525,5.46609836 12.6196721,5.65298361 12.5508197,5.84478689 C12.904918,5.81036066 13.3229508,6.012 12.9295082,7.39888525 C12.6442623,8.412 12.3786885,8.6972459 12.1770492,8.712 C11.995082,9.91691803 11.0360656,11.4415082 9.53114754,11.9824918 C8.90655738,12.2087213 8.21803279,12.2087213 7.59344262,11.9874098 C6.06393443,11.4464262 5.13934426,9.91691803 4.95245902,8.712 Z M22.657377,1.32511475 C24.3983607,3.07101639 24.3983607,5.89396721 22.652459,7.63495082 C21.1868852,9.10052459 18.9540984,9.33167213 17.242623,8.32839344 L17.2327869,8.31855738 C16.5639344,8.82511475 15.8409836,8.91363934 15.3393443,8.83495082 C15.1721311,8.81036066 15.1377049,8.58413115 15.2901639,8.51036066 C15.752459,8.28413115 16.042623,7.83659016 16.2098361,7.47265574 L16.1655738,7.43331148 C14.6114754,5.6824918 14.6754098,3.00216393 16.352459,1.32511475 C18.0934426,-0.415868852 20.9163934,-0.415868852 22.657377,1.32511475 Z M17.5819672,5.05790164 C17.9016393,5.05790164 18.1622951,4.80216393 18.1622951,4.47757377 C18.1622951,4.15790164 17.9016393,3.8972459 17.5819672,3.8972459 C17.2622951,3.8972459 17.0016393,4.15790164 17.0016393,4.47757377 C17.0016393,4.7972459 17.2622951,5.05790164 17.5819672,5.05790164 Z M19.504918,5.05790164 C19.8245902,5.05790164 20.0803279,4.80216393 20.0852459,4.47757377 C20.0852459,4.15790164 19.8245902,3.8972459 19.504918,3.8972459 C19.1852459,3.8972459 18.9245902,4.15790164 18.9245902,4.47757377 C18.9245902,4.7972459 19.1852459,5.05790164 19.504918,5.05790164 Z M21.4229508,5.05790164 C21.742623,5.05790164 22.0032787,4.80216393 22.0032787,4.47757377 C22.0032787,4.15790164 21.742623,3.8972459 21.4229508,3.8972459 C21.1032787,3.8972459 20.842623,4.15790164 20.842623,4.47757377 C20.842623,4.7972459 21.1032787,5.05790164 21.4229508,5.05790164 Z" id="Path-2"></path>
            </g>
        </g>
    </g>
</svg>