<?xml version="1.0" encoding="UTF-8"?>
<svg width="20px" height="15px" viewBox="0 0 20 15" version="1.1" xmlns="http://www.w3.org/2000/svg" xmlns:xlink="http://www.w3.org/1999/xlink">
    <!-- Generator: Sketch 52.6 (67491) - http://www.bohemiancoding.com/sketch -->
    <title>006-twitter</title>
    <desc>Created with Sketch.</desc>
    <g id="Symbols" stroke="none" stroke-width="1" fill="none" fill-rule="evenodd">
        <g id="UI/Footer" transform="translate(-1030.000000, -220.000000)" fill="#BEC5CE" fill-rule="nonzero">
            <g id="Group-9">
                <g id="006-twitter" transform="translate(1030.000000, 220.000000)">
                    <path d="M20,1.77576923 C19.25625,2.07692308 18.46375,2.27653846 17.6375,2.37346154 C18.4875,1.905 19.13625,1.16884615 19.44125,0.281538462 C18.64875,0.717692308 17.77375,1.02576923 16.84125,1.19769231 C16.08875,0.458076923 15.01625,0 13.84625,0 C11.57625,0 9.74875,1.70076923 9.74875,3.78576923 C9.74875,4.08576923 9.77625,4.37423077 9.84375,4.64884615 C6.435,4.49538462 3.41875,2.98730769 1.3925,0.69 C1.03875,1.25653846 0.83125,1.905 0.83125,2.60307692 C0.83125,3.91384615 1.5625,5.07576923 2.6525,5.74846154 C1.99375,5.73692308 1.3475,5.56038462 0.8,5.28230769 C0.8,5.29384615 0.8,5.30884615 0.8,5.32384615 C0.8,7.16307692 2.22125,8.69076923 4.085,9.04269231 C3.75125,9.12692308 3.3875,9.16730769 3.01,9.16730769 C2.7475,9.16730769 2.4825,9.15346154 2.23375,9.10269231 C2.765,10.6015385 4.2725,11.7034615 6.065,11.7392308 C4.67,12.7465385 2.89875,13.3534615 0.98125,13.3534615 C0.645,13.3534615 0.3225,13.3396154 0,13.3015385 C1.81625,14.3826923 3.96875,15 6.29,15 C13.835,15 17.96,9.23076923 17.96,4.23 C17.96,4.06269231 17.95375,3.90115385 17.945,3.74076923 C18.75875,3.20769231 19.4425,2.54192308 20,1.77576923 Z" id="Path"></path>
                </g>
            </g>
        </g>
    </g>
</svg>