<?xml version="1.0" encoding="UTF-8"?>
<svg width="25px" height="15px" viewBox="0 0 25 15" version="1.1" xmlns="http://www.w3.org/2000/svg" xmlns:xlink="http://www.w3.org/1999/xlink">
    <!-- Generator: Sketch 52.6 (67491) - http://www.bohemiancoding.com/sketch -->
    <title>005-vk</title>
    <desc>Created with Sketch.</desc>
    <g id="Symbols" stroke="none" stroke-width="1" fill="none" fill-rule="evenodd">
        <g id="UI/Footer" transform="translate(-955.000000, -220.000000)" fill="#BEC5CE" fill-rule="nonzero">
            <g id="Group-9">
                <g id="005-vk" transform="translate(955.000000, 220.000000)">
                    <path d="M21.5160623,9.53768341 C22.3453435,10.396108 23.2206229,11.2037604 23.9643968,12.1487503 C24.2929551,12.5686877 24.6040177,13.0020367 24.841976,13.4893801 C25.179159,14.1821637 24.8737641,14.9445304 24.2878624,14.9858972 L20.6457934,14.9841554 C19.7064452,15.0668017 18.9570858,14.6658494 18.3269931,13.9849098 C17.8227382,13.4403497 17.3557747,12.8607803 16.8709048,12.2978446 C16.672127,12.0677586 16.4640674,11.8512583 16.215513,11.6801308 C15.7183222,11.3379627 15.2867608,11.4427294 15.00264,11.9925148 C14.7132623,12.5517056 14.6476327,13.1709 14.6192124,13.7941004 C14.5801961,14.7033843 14.3209636,14.9424403 13.4594837,14.9840683 C11.6184072,15.0761201 9.871134,14.7808054 8.24797375,13.7961034 C6.81693798,12.9280121 5.70723225,11.7025123 4.74135293,10.3151163 C2.86076724,7.61356521 1.42061398,4.64500283 0.12625847,1.59327159 C-0.165090622,0.905713284 0.0479794496,0.536635121 0.763497334,0.523571948 C1.95164636,0.499100272 3.13963111,0.500842028 4.32917652,0.521830192 C4.81207511,0.529319744 5.13176235,0.822979859 5.3182192,1.30666559 C5.96104356,2.98249643 6.74761218,4.57690016 7.73492993,6.05478039 C7.99785873,6.44824314 8.26596232,6.84170589 8.64774709,7.11864515 C9.07010881,7.42528135 9.39168527,7.32364987 9.59038091,6.82481086 C9.71646517,6.50850791 9.77166297,6.16782038 9.80008326,5.82904877 C9.89421522,4.66355253 9.9066183,3.50005932 9.74151774,2.3386562 C9.6401575,1.61382431 9.25508715,1.14459516 8.57291793,1.00743185 C8.22481039,0.937500337 8.27664047,0.800162851 8.44519088,0.589497425 C8.73793635,0.226167058 9.01326822,0 9.5621249,0 L13.6782214,0 C14.3262206,0.135595729 14.4701291,0.444234948 14.5588398,1.13553803 L14.5623718,5.98310712 C14.5553078,6.25072798 14.6884561,7.04488177 15.1430987,7.22201839 C15.506977,7.34812154 15.7468246,7.03948232 15.9651516,6.79485265 C16.9506623,5.6858764 17.6540235,4.37529186 18.2823913,3.01820243 C18.5612552,2.42147672 18.8010206,1.80175982 19.0333935,1.18256545 C19.205558,0.723090134 19.4757151,0.497010165 19.9638707,0.507025263 L23.9253805,0.510770039 C24.0428401,0.510770039 24.161696,0.512598884 24.2754594,0.533238696 C24.9430077,0.653855321 25.1259326,0.958314325 24.9197622,1.64944323 C24.5949002,2.73377362 23.9628361,3.6373968 23.3448179,4.54520019 C22.6841693,5.51440049 21.9776046,6.45042034 21.3224593,7.42536844 C20.7205405,8.31566718 20.7683457,8.76443069 21.5160623,9.53768341 Z" id="XMLID_807_"></path>
                </g>
            </g>
        </g>
    </g>
</svg>